<?xml version="1.0" standalone="no"?>
<!DOCTYPE svg PUBLIC "-//W3C//DTD SVG 20010904//EN"
 "http://www.w3.org/TR/2001/REC-SVG-20010904/DTD/svg10.dtd">
<svg version="1.0" xmlns="http://www.w3.org/2000/svg"
 width="324.000000pt" height="324.000000pt" viewBox="0 0 324.000000 324.000000"
 preserveAspectRatio="xMidYMid meet">
<metadata>
Created by potrace 1.15, written by Peter Selinger 2001-2017
</metadata><g><rect x="0" y="0" width="324" height="324" fill="#ffffff" />
<g transform="translate(0.000000,324.000000) scale(0.050000,-0.050000)"
fill="#000000" stroke="none">
<path d="M620 5230 l0 -630 630 0 630 0 0 630 0 630 -630 0 -630 0 0 -630z
m1080 0 l0 -450 -450 0 -450 0 0 450 0 450 450 0 450 0 0 -450z"/>
<path d="M980 5230 l0 -270 270 0 270 0 0 270 0 270 -270 0 -270 0 0 -270z"/>
<path d="M2060 5770 l0 -90 90 0 90 0 0 -90 0 -90 -90 0 -90 0 0 -270 0 -270
90 0 90 0 0 90 0 90 180 0 180 0 0 -90 0 -90 -90 0 -90 0 0 -450 0 -450 -90 0
-90 0 0 -270 0 -270 180 0 180 0 0 -90 0 -90 -90 0 -90 0 0 -90 0 -90 -270 0
-270 0 0 90 0 90 -90 0 -90 0 0 -90 0 -90 90 0 90 0 0 -90 0 -90 -90 0 -90 0
0 -90 0 -90 -90 0 -90 0 0 -90 0 -90 90 0 90 0 0 -90 0 -90 -180 0 -180 0 0
180 0 180 -90 0 -90 0 0 -90 0 -90 -90 0 -90 0 0 90 0 90 -90 0 -90 0 0 -90 0
-90 -90 0 -90 0 0 -90 0 -90 90 0 90 0 0 90 0 90 90 0 90 0 0 -180 0 -180 -90
0 -90 0 0 -90 0 -90 180 0 180 0 0 180 0 180 90 0 90 0 0 -180 0 -180 360 0
360 0 0 -90 0 -90 180 0 180 0 0 -90 0 -90 90 0 90 0 0 -180 0 -180 -90 0 -90
0 0 -90 0 -90 180 0 180 0 0 -180 0 -180 -90 0 -90 0 0 90 0 90 -90 0 -90 0 0
-180 0 -180 180 0 180 0 0 90 0 90 180 0 180 0 0 90 0 90 90 0 90 0 0 -180 0
-180 90 0 90 0 0 90 0 90 90 0 90 0 0 90 0 90 180 0 180 0 0 90 0 90 90 0 90
0 0 -180 0 -180 -180 0 -180 0 0 -90 0 -90 450 0 450 0 0 90 0 90 90 0 90 0 0
180 0 180 180 0 180 0 0 -90 0 -90 -90 0 -90 0 0 -90 0 -90 90 0 90 0 0 90 0
90 90 0 90 0 0 -180 0 -180 90 0 90 0 0 180 0 180 90 0 90 0 0 180 0 180 -90
0 -90 0 0 -180 0 -180 -90 0 -90 0 0 90 0 90 -90 0 -90 0 0 90 0 90 90 0 90 0
0 90 0 90 -90 0 -90 0 0 180 0 180 90 0 90 0 0 -90 0 -90 90 0 90 0 0 90 0 90
90 0 90 0 0 90 0 90 -180 0 -180 0 0 270 0 270 90 0 90 0 0 270 0 270 90 0 90
0 0 180 0 180 -180 0 -180 0 0 90 0 90 -180 0 -180 0 0 90 0 90 -90 0 -90 0 0
90 0 90 90 0 90 0 0 90 0 90 180 0 180 0 0 90 0 90 -270 0 -270 0 0 -90 0 -90
-180 0 -180 0 0 90 0 90 -360 0 -360 0 0 90 0 90 90 0 90 0 0 90 0 90 90 0 90
0 0 -90 0 -90 90 0 90 0 0 180 0 180 -90 0 -90 0 0 180 0 180 90 0 90 0 0 90
0 90 -270 0 -270 0 0 90 0 90 270 0 270 0 0 90 0 90 -270 0 -270 0 0 -90 0
-90 -90 0 -90 0 0 90 0 90 -90 0 -90 0 0 -90 0 -90 90 0 90 0 0 -90 0 -90
-360 0 -360 0 0 90 0 90 90 0 90 0 0 90 0 90 -180 0 -180 0 0 -90 0 -90 -90 0
-90 0 0 90 0 90 -90 0 -90 0 0 -90 0 -90 -90 0 -90 0 0 90 0 90 -90 0 -90 0 0
-90z m900 -360 l0 -90 -90 0 -90 0 0 -90 0 -90 -90 0 -90 0 0 180 0 180 180 0
180 0 0 -90z m900 0 l0 -90 90 0 90 0 0 -180 0 -180 -180 0 -180 0 0 -90 0
-90 90 0 90 0 0 -90 0 -90 -90 0 -90 0 0 90 0 90 -90 0 -90 0 0 -90 0 -90 -90
0 -90 0 0 -180 0 -180 90 0 90 0 0 -90 0 -90 180 0 180 0 0 -180 0 -180 90 0
90 0 0 -90 0 -90 90 0 90 0 0 180 0 180 -90 0 -90 0 0 90 0 90 90 0 90 0 0
-90 0 -90 90 0 90 0 0 -90 0 -90 180 0 180 0 0 90 0 90 -90 0 -90 0 0 90 0 90
-90 0 -90 0 0 90 0 90 90 0 90 0 0 -90 0 -90 90 0 90 0 0 -90 0 -90 90 0 90 0
0 -90 0 -90 90 0 90 0 0 -90 0 -90 90 0 90 0 0 -180 0 -180 90 0 90 0 0 -180
0 -180 -90 0 -90 0 0 90 0 90 -90 0 -90 0 0 90 0 90 -180 0 -180 0 0 180 0
180 -90 0 -90 0 0 -180 0 -180 -90 0 -90 0 0 90 0 90 -180 0 -180 0 0 -180 0
-180 -90 0 -90 0 0 -90 0 -90 270 0 270 0 0 90 0 90 270 0 270 0 0 -90 0 -90
90 0 90 0 0 -90 0 -90 90 0 90 0 0 -180 0 -180 -90 0 -90 0 0 180 0 180 -90 0
-90 0 0 90 0 90 -90 0 -90 0 0 -90 0 -90 -90 0 -90 0 0 -180 0 -180 -180 0
-180 0 0 -180 0 -180 -90 0 -90 0 0 -90 0 -90 90 0 90 0 0 -180 0 -180 90 0
90 0 0 -90 0 -90 90 0 90 0 0 90 0 90 90 0 90 0 0 -270 0 -270 -90 0 -90 0 0
90 0 90 -90 0 -90 0 0 90 0 90 -90 0 -90 0 0 90 0 90 -90 0 -90 0 0 -90 0 -90
-180 0 -180 0 0 -90 0 -90 -180 0 -180 0 0 90 0 90 -90 0 -90 0 0 -90 0 -90
-90 0 -90 0 0 90 0 90 -90 0 -90 0 0 180 0 180 270 0 270 0 0 180 0 180 -90 0
-90 0 0 -90 0 -90 -270 0 -270 0 0 180 0 180 -180 0 -180 0 0 180 0 180 90 0
90 0 0 -90 0 -90 180 0 180 0 0 90 0 90 -90 0 -90 0 0 270 0 270 -90 0 -90 0
0 90 0 90 90 0 90 0 0 -90 0 -90 90 0 90 0 0 180 0 180 90 0 90 0 0 180 0 180
-90 0 -90 0 0 -90 0 -90 -90 0 -90 0 0 180 0 180 270 0 270 0 0 270 0 270 -90
0 -90 0 0 180 0 180 -90 0 -90 0 0 -180 0 -180 -90 0 -90 0 0 180 0 180 90 0
90 0 0 90 0 90 90 0 90 0 0 90 0 90 180 0 180 0 0 -90 0 -90 180 0 180 0 0 90
0 90 90 0 90 0 0 90 0 90 -90 0 -90 0 0 90 0 90 90 0 90 0 0 -90z m-1080
-1260 l0 -90 -90 0 -90 0 0 90 0 90 90 0 90 0 0 -90z m-540 -1260 l0 -90 90 0
90 0 0 -90 0 -90 -90 0 -90 0 0 90 0 90 -90 0 -90 0 0 -270 0 -270 -180 0
-180 0 0 90 0 90 90 0 90 0 0 90 0 90 -90 0 -90 0 0 90 0 90 90 0 90 0 0 90 0
90 180 0 180 0 0 -90z m2700 -1080 l0 -270 -270 0 -270 0 0 270 0 270 270 0
270 0 0 -270z m360 -360 l0 -90 -90 0 -90 0 0 90 0 90 90 0 90 0 0 -90z"/>
<path d="M3140 4690 l0 -90 90 0 90 0 0 90 0 90 -90 0 -90 0 0 -90z"/>
<path d="M3320 3790 l0 -90 -90 0 -90 0 0 -180 0 -180 -90 0 -90 0 0 -90 0
-90 90 0 90 0 0 -270 0 -270 -90 0 -90 0 0 -270 0 -270 270 0 270 0 0 -180 0
-180 90 0 90 0 0 270 0 270 90 0 90 0 0 -180 0 -180 90 0 90 0 0 180 0 180
-90 0 -90 0 0 90 0 90 -90 0 -90 0 0 90 0 90 -90 0 -90 0 0 180 0 180 90 0 90
0 0 270 0 270 90 0 90 0 0 90 0 90 -90 0 -90 0 0 -90 0 -90 -90 0 -90 0 0
-270 0 -270 -90 0 -90 0 0 90 0 90 -90 0 -90 0 0 90 0 90 90 0 90 0 0 180 0
180 90 0 90 0 0 90 0 90 -90 0 -90 0 0 -90z"/>
<path d="M2780 2890 l0 -90 90 0 90 0 0 90 0 90 -90 0 -90 0 0 -90z"/>
<path d="M4220 2530 l0 -90 90 0 90 0 0 90 0 90 -90 0 -90 0 0 -90z"/>
<path d="M3860 1630 l0 -90 -90 0 -90 0 0 -90 0 -90 -180 0 -180 0 0 -90 0
-90 180 0 180 0 0 90 0 90 90 0 90 0 0 90 0 90 90 0 90 0 0 90 0 90 -90 0 -90
0 0 -90z"/>
<path d="M2960 1270 l0 -90 90 0 90 0 0 90 0 90 -90 0 -90 0 0 -90z"/>
<path d="M4580 1810 l0 -90 90 0 90 0 0 90 0 90 -90 0 -90 0 0 -90z"/>
<path d="M4580 5230 l0 -630 630 0 630 0 0 630 0 630 -630 0 -630 0 0 -630z
m1080 0 l0 -450 -450 0 -450 0 0 450 0 450 450 0 450 0 0 -450z"/>
<path d="M4940 5230 l0 -270 270 0 270 0 0 270 0 270 -270 0 -270 0 0 -270z"/>
<path d="M2060 4690 l0 -90 90 0 90 0 0 90 0 90 -90 0 -90 0 0 -90z"/>
<path d="M620 4240 l0 -180 90 0 90 0 0 90 0 90 90 0 90 0 0 -90 0 -90 90 0
90 0 0 -90 0 -90 -90 0 -90 0 0 -180 0 -180 180 0 180 0 0 -90 0 -90 90 0 90
0 0 90 0 90 180 0 180 0 0 90 0 90 -90 0 -90 0 0 90 0 90 90 0 90 0 0 90 0 90
-90 0 -90 0 0 90 0 90 90 0 90 0 0 90 0 90 -90 0 -90 0 0 -90 0 -90 -90 0 -90
0 0 -360 0 -360 -90 0 -90 0 0 450 0 450 -360 0 -360 0 0 -180z"/>
<path d="M2060 4330 l0 -90 90 0 90 0 0 90 0 90 -90 0 -90 0 0 -90z"/>
<path d="M5660 4240 l0 -180 -180 0 -180 0 0 -90 0 -90 180 0 180 0 0 -90 0
-90 90 0 90 0 0 90 0 90 -90 0 -90 0 0 90 0 90 90 0 90 0 0 180 0 180 -90 0
-90 0 0 -180z"/>
<path d="M620 3790 l0 -90 90 0 90 0 0 90 0 90 -90 0 -90 0 0 -90z"/>
<path d="M620 3160 l0 -180 90 0 90 0 0 180 0 180 -90 0 -90 0 0 -180z"/>
<path d="M980 3250 l0 -90 90 0 90 0 0 -90 0 -90 90 0 90 0 0 90 0 90 -90 0
-90 0 0 90 0 90 -90 0 -90 0 0 -90z"/>
<path d="M620 1270 l0 -630 630 0 630 0 0 630 0 630 -630 0 -630 0 0 -630z
m1080 0 l0 -450 -450 0 -450 0 0 450 0 450 450 0 450 0 0 -450z"/>
<path d="M980 1270 l0 -270 270 0 270 0 0 270 0 270 -270 0 -270 0 0 -270z"/>
<path d="M2060 1000 l0 -360 90 0 90 0 0 360 0 360 -90 0 -90 0 0 -360z"/>
</g>
</g></svg>
